<svg width="51" height="51" viewBox="0 0 51 51" fill="none" xmlns="http://www.w3.org/2000/svg">
<g id="Frame" clip-path="url(#clip0_80_3974)">
<rect width="50.413" height="50.413" transform="translate(0.179565 0.303711)" fill="#FFED9B"/>
<path id="Vector" d="M7.19577 36.0134C6.3078 34.4778 5.61755 32.8362 5.14143 31.1275C6.17765 30.6005 7.04788 29.7971 7.65585 28.8062C8.26382 27.8153 8.58583 26.6755 8.58627 25.513C8.5867 24.3504 8.26554 23.2104 7.65831 22.2191C7.05108 21.2277 6.18145 20.4237 5.14563 19.8959C6.09516 16.4625 7.90308 13.3274 10.3991 10.7858C11.3739 11.4196 12.5051 11.7713 13.6675 11.802C14.8298 11.8327 15.978 11.5412 16.985 10.9598C17.9919 10.3784 18.8184 9.52969 19.3729 8.50766C19.9274 7.48562 20.1883 6.3301 20.1267 5.16897C23.576 4.27754 27.1955 4.27899 30.6441 5.17317C30.5831 6.33428 30.8445 7.48963 31.3994 8.51137C31.9544 9.53311 32.7811 10.3814 33.7883 10.9624C34.7954 11.5434 35.9437 11.8344 37.106 11.8032C38.2683 11.7721 39.3993 11.4199 40.3739 10.7858C41.5901 12.0251 42.6697 13.4346 43.5772 15.0079C44.4867 16.5812 45.1673 18.2217 45.6315 19.8938C44.5953 20.4208 43.7251 21.2242 43.1171 22.2151C42.5091 23.206 42.1871 24.3458 42.1867 25.5083C42.1862 26.6708 42.5074 27.8108 43.1146 28.8022C43.7219 29.7935 44.5915 30.5976 45.6273 31.1254C44.6778 34.5588 42.8699 37.6939 40.3739 40.2354C39.399 39.6017 38.2678 39.25 37.1054 39.2192C35.9431 39.1885 34.7949 39.48 33.788 40.0615C32.781 40.6429 31.9545 41.4916 31.4001 42.5136C30.8456 43.5356 30.5847 44.6912 30.6462 45.8523C27.1969 46.7437 23.5774 46.7423 20.1288 45.8481C20.1898 44.687 19.9284 43.5316 19.3735 42.5099C18.8186 41.4882 17.9918 40.6399 16.9847 40.0589C15.9775 39.4779 14.8293 39.1869 13.667 39.218C12.5047 39.2492 11.3737 39.6013 10.3991 40.2354C9.15765 38.9687 8.08134 37.5501 7.19577 36.0134ZM19.0848 36.4251C21.3232 37.7161 23.0062 39.7881 23.8111 42.2436C24.8592 42.3423 25.9116 42.3444 26.9598 42.2457C27.7651 39.7898 29.4489 37.7178 31.6881 36.4272C33.9256 35.1326 36.5625 34.7099 39.0925 35.2404C39.7017 34.3833 40.2268 33.4696 40.6637 32.5138C38.9401 30.5886 37.9879 28.0947 37.9897 25.5106C37.9897 22.8639 38.977 20.3916 40.6637 18.5074C40.2237 17.552 39.6963 16.6393 39.0883 15.7809C36.5599 16.3109 33.9247 15.889 31.6881 14.5962C29.4497 13.3052 27.7667 11.2332 26.9619 8.7777C25.9137 8.67898 24.8613 8.67688 23.8132 8.7756C23.0078 11.2314 21.324 13.3034 19.0848 14.5941C16.8473 15.8887 14.2105 16.3113 11.6804 15.7809C11.0725 16.6385 10.5464 17.5514 10.1092 18.5074C11.8329 20.4327 12.7851 22.9265 12.7832 25.5106C12.7832 28.1573 11.796 30.6297 10.1092 32.5138C10.5492 33.4693 11.0766 34.382 11.6846 35.2404C14.2131 34.7104 16.8482 35.1322 19.0848 36.4251ZM25.3865 31.8123C23.7152 31.8123 22.1123 31.1483 20.9305 29.9666C19.7488 28.7848 19.0848 27.1819 19.0848 25.5106C19.0848 23.8393 19.7488 22.2365 20.9305 21.0547C22.1123 19.8729 23.7152 19.209 25.3865 19.209C27.0578 19.209 28.6606 19.8729 29.8424 21.0547C31.0242 22.2365 31.6881 23.8393 31.6881 25.5106C31.6881 27.1819 31.0242 28.7848 29.8424 29.9666C28.6606 31.1483 27.0578 31.8123 25.3865 31.8123ZM25.3865 27.6112C25.9436 27.6112 26.4778 27.3899 26.8718 26.9959C27.2657 26.602 27.487 26.0677 27.487 25.5106C27.487 24.9535 27.2657 24.4193 26.8718 24.0253C26.4778 23.6314 25.9436 23.4101 25.3865 23.4101C24.8294 23.4101 24.2951 23.6314 23.9012 24.0253C23.5072 24.4193 23.2859 24.9535 23.2859 25.5106C23.2859 26.0677 23.5072 26.602 23.9012 26.9959C24.2951 27.3899 24.8294 27.6112 25.3865 27.6112Z" fill="black"/>
</g>
<defs>
<clipPath id="clip0_80_3974">
<rect width="50.413" height="50.413" fill="white" transform="translate(0.179565 0.303711)"/>
</clipPath>
</defs>
</svg>
