<svg width="39" height="45" viewBox="0 0 39 45" fill="none" xmlns="http://www.w3.org/2000/svg">
<g id="Group 1000000970">
<path id="Vector" d="M17.4996 29.2937L12.8328 24.5815L17.4996 19.8692L14.4673 16.7856L6.74659 24.5815L14.4673 32.3773L17.4996 29.2937Z" fill="black"/>
<path id="Vector_2" d="M24.8332 32.3773L32.5539 24.5815L24.8332 16.7856L21.8008 19.8692L26.4677 24.5815L21.8008 29.2937L24.8332 32.3773Z" fill="black"/>
<path id="Vector_3" d="M34.7045 5.03791H25.7149C24.8117 2.51892 22.446 0.694824 19.6502 0.694824C16.8544 0.694824 14.4888 2.51892 13.5855 5.03791H4.59598C4.2949 5.03791 4.01532 5.05963 3.73574 5.12477C2.897 5.2985 2.14429 5.7328 1.56363 6.31912C1.17652 6.71 0.853927 7.18774 0.638866 7.70891C0.423806 8.20836 0.294769 8.77296 0.294769 9.381V31.0964V33.268V39.7826C0.294769 40.3689 0.423806 40.9552 0.638866 41.4764C0.853927 41.9976 1.17652 42.4536 1.56363 42.8662C2.14429 43.4525 2.897 43.8868 3.73574 44.0605C4.01532 44.104 4.2949 44.1257 4.59598 44.1257H34.7045C37.0701 44.1257 39.0057 42.1713 39.0057 39.7826V33.268V31.0964V9.381C39.0057 6.9923 37.0701 5.03791 34.7045 5.03791ZM19.6502 4.49502C20.532 4.49502 21.2632 5.23335 21.2632 6.12368C21.2632 7.01401 20.532 7.75234 19.6502 7.75234C18.7685 7.75234 18.0373 7.01401 18.0373 6.12368C18.0373 5.23335 18.7685 4.49502 19.6502 4.49502ZM34.7045 31.0964V33.268V39.7826H4.59598V33.268V31.0964V9.381H34.7045V31.0964Z" fill="black"/>
</g>
</svg>
