<svg width="37" height="37" viewBox="0 0 37 37" fill="none" xmlns="http://www.w3.org/2000/svg">
<path id="Vector" d="M18.4966 12.4601H26.348C27.4276 12.4601 28.3109 11.5683 28.3109 10.4782C28.3109 9.3881 27.4276 8.49622 26.348 8.49622H18.4966C17.417 8.49622 16.5338 9.3881 16.5338 10.4782C16.5338 11.5683 17.417 12.4601 18.4966 12.4601ZM18.4966 20.388H26.348C27.4276 20.388 28.3109 19.4961 28.3109 18.406C28.3109 17.316 27.4276 16.4241 26.348 16.4241H18.4966C17.417 16.4241 16.5338 17.316 16.5338 18.406C16.5338 19.4961 17.417 20.388 18.4966 20.388ZM18.4966 28.3159H26.348C27.4276 28.3159 28.3109 27.424 28.3109 26.3339C28.3109 25.2438 27.4276 24.3519 26.348 24.3519H18.4966C17.417 24.3519 16.5338 25.2438 16.5338 26.3339C16.5338 27.424 17.417 28.3159 18.4966 28.3159ZM8.68233 8.49622H12.608V12.4601H8.68233V8.49622ZM8.68233 16.4241H12.608V20.388H8.68233V16.4241ZM8.68233 24.3519H12.608V28.3159H8.68233V24.3519ZM34.1994 0.568359H2.79377C1.7142 0.568359 0.830917 1.46024 0.830917 2.55032V34.2617C0.830917 35.3518 1.7142 36.2437 2.79377 36.2437H34.1994C35.279 36.2437 36.1623 35.3518 36.1623 34.2617V2.55032C36.1623 1.46024 35.279 0.568359 34.1994 0.568359ZM32.2366 32.2798H4.75663V4.53229H32.2366V32.2798Z" fill="black"/>
</svg>
