<svg width="39" height="44" viewBox="0 0 39 44" fill="none" xmlns="http://www.w3.org/2000/svg">
<path id="Vector" d="M34.4314 4.61701H32.2978V0.273926H28.0308V4.61701H10.9625V0.273926H6.69538V4.61701H4.56184C2.19362 4.61701 0.294769 6.5714 0.294769 8.9601V39.3617C0.294769 41.7504 2.19362 43.7048 4.56184 43.7048H34.4314C36.7783 43.7048 38.6984 41.7504 38.6984 39.3617V8.9601C38.6984 6.5714 36.7783 4.61701 34.4314 4.61701ZM19.4966 11.1316C23.0383 11.1316 25.8972 14.0415 25.8972 17.6463C25.8972 21.251 23.0383 24.1609 19.4966 24.1609C15.9549 24.1609 13.096 21.251 13.096 17.6463C13.096 14.0415 15.9549 11.1316 19.4966 11.1316ZM32.2978 37.1902H6.69538V35.0186C6.69538 30.6755 15.2295 28.2868 19.4966 28.2868C23.7637 28.2868 32.2978 30.6755 32.2978 35.0186V37.1902Z" fill="black"/>
</svg>
