<svg width="48" height="48" viewBox="0 0 48 48" fill="none" xmlns="http://www.w3.org/2000/svg">
<g id="Frame" clip-path="url(#clip0_80_3978)">
<rect width="47.2622" height="47.2622" transform="translate(0.717857 0.737793)" fill="#FFED9B"/>
<path id="Vector" d="M8.5952 36.1844H12.5337V40.1229H36.1648V8.61479H12.5337V12.5533H8.5952V6.64553C8.5952 6.12325 8.80268 5.62236 9.17199 5.25305C9.5413 4.88374 10.0422 4.67627 10.5645 4.67627L38.1341 4.67627C38.6564 4.67627 39.1573 4.88374 39.5266 5.25305C39.8959 5.62236 40.1034 6.12325 40.1034 6.64553V42.0922C40.1034 42.6145 39.8959 43.1154 39.5266 43.4847C39.1573 43.854 38.6564 44.0615 38.1341 44.0615H10.5645C10.0422 44.0615 9.5413 43.854 9.17199 43.4847C8.80268 43.1154 8.5952 42.6145 8.5952 42.0922V36.1844ZM12.5337 22.3996H26.3185V26.3381H12.5337V32.2459L2.68742 24.3689L12.5337 16.4918V22.3996Z" fill="black"/>
</g>
<defs>
<clipPath id="clip0_80_3978">
<rect width="47.2622" height="47.2622" fill="white" transform="translate(0.717857 0.737793)"/>
</clipPath>
</defs>
</svg>
